<?xml version="1.0" encoding="UTF-8" standalone="no"?>
<svg
   xmlns:dc="http://purl.org/dc/elements/1.1/"
   xmlns:cc="http://creativecommons.org/ns#"
   xmlns:rdf="http://www.w3.org/1999/02/22-rdf-syntax-ns#"
   xmlns:svg="http://www.w3.org/2000/svg"
   xmlns="http://www.w3.org/2000/svg"
   id="svg8"
   version="1.1"
   viewBox="0 0 210 297"
   height="297mm"
   width="210mm">
  <defs
     id="defs2" />
  <metadata
     id="metadata5">
    <rdf:RDF>
      <cc:Work
         rdf:about="">
        <dc:format>image/svg+xml</dc:format>
        <dc:type
           rdf:resource="http://purl.org/dc/dcmitype/StillImage" />
        <dc:title></dc:title>
      </cc:Work>
    </rdf:RDF>
  </metadata>
  <g
     id="layer1">
    <path
       id="path24"
       d="m 102.09852,214.03237 c -4.247615,-0.36855 -10.632431,-1.40623 -14.067574,-2.28631 -6.411118,-1.64252 -15.937386,-4.93416 -20.490899,-7.08027 -4.02629,-1.89763 -4.42681,-2.01325 -5.203406,-1.50196 -1.063368,0.70006 -2.409247,0.21601 -5.438467,-1.95601 -6.230839,-4.46763 -12.01127,-12.76875 -14.900808,-21.39864 -3.507759,-10.47625 -3.80948,-23.64903 -0.798567,-34.86451 3.444307,-12.82986 8.691934,-23.2995 16.657377,-33.23343 1.088757,-1.35781 2.624002,-3.75062 3.411656,-5.31733 0.787655,-1.56673 1.824125,-3.27587 2.303273,-3.7981 0.479147,-0.52224 1.915279,-2.31685 3.191408,-3.988016 7.516914,-9.843841 21.554099,-18.397695 32.953987,-20.081225 4.7824,-0.706268 7.36172,-0.276335 7.36172,1.227069 0,1.200426 -0.72101,1.47455 -3.38178,1.285795 -6.003888,-0.425943 -17.130372,4.076631 -25.570682,10.347732 -3.153904,2.343331 -8.26468,7.195493 -8.953925,8.500855 -0.607952,1.15139 -0.194997,0.92606 2.665437,-1.454453 7.145931,-5.946993 19.397775,-11.450041 28.44014,-12.774222 11.84465,-1.734548 23.92638,0.858546 33.42305,7.173559 3.25374,2.16365 7.70056,6.156662 9.71167,8.720596 1.55839,1.98675 1.77288,2.13394 2.3521,1.6142 0.92636,-0.83126 1.6481,-0.70719 2.74902,0.47258 1.27166,1.36275 4.44851,7.0382 6.61468,11.81714 1.65944,3.66102 1.73264,3.98095 2.11241,9.23353 0.21638,2.9926 0.3951,7.61017 0.39719,10.26128 0.001,2.65109 0.14805,4.90857 0.32437,5.01661 0.17632,0.10809 1.48988,-2.0346 2.91902,-4.76145 l 2.59845,-4.9579 -0.18202,-3.09721 c -0.14333,-2.43856 -0.52498,-3.98566 -1.79489,-7.27512 -0.8871,-2.29783 -2.04121,-4.82813 -2.5647,-5.62282 -1.11899,-1.69872 -0.94297,-2.9229 0.42026,-2.9229 1.46263,0 3.1504,3.07818 6.00908,10.95941 1.12885,3.11216 1.3154,6.38245 0.50358,8.82835 -0.77341,2.33024 -5.04952,10.37957 -6.55072,12.33108 l -0.99596,1.29473 0.34677,6.74651 c 0.30708,5.97428 0.4023,6.61609 0.8319,5.60708 2.48246,-5.83072 4.92035,-8.11069 7.67302,-7.176 1.21796,0.41355 2.90345,3.56923 3.52852,6.60629 0.23647,1.14892 0.42588,4.41567 0.42092,7.25944 -0.007,4.35871 -0.16704,5.75913 -1.01546,8.91971 -0.55352,2.06207 -1.23743,4.09884 -1.5198,4.52613 -1.14307,1.72977 -3.5058,2.87237 -7.6933,3.72045 l -4.10643,0.83166 -2.83036,4.07391 c -2.28321,3.28632 -2.83146,4.351 -2.83602,5.50725 -0.003,0.78834 -0.22289,1.86063 -0.48841,2.38287 -0.99393,1.95492 -3.53899,1.0067 -2.6267,-0.97864 1.68955,-3.67675 -1.76087,-17.92609 -5.09211,-21.02914 -2.27457,-2.11876 -4.37371,-1.12431 -7.04787,3.33887 -1.74953,2.91998 -2.38327,4.52138 -4.6074,11.64241 -2.11689,6.77769 -2.86784,10.7489 -2.63716,13.94577 0.21488,2.97778 -0.30956,4.03477 -1.64917,3.3239 -1.04781,-0.55602 -1.26768,-1.86669 -1.01022,-6.02223 0.38526,-6.21882 4.46109,-19.70858 7.41479,-24.54079 3.7846,-6.19155 8.44421,-7.25256 12.11891,-2.75953 2.26952,2.77494 3.7946,6.56145 4.98832,12.38519 l 0.49383,2.40927 2.08545,-3.16418 c 2.28685,-3.46977 2.13536,-3.38394 7.16504,-4.05927 5.35274,-0.71872 6.97405,-2.46013 7.83903,-8.41969 1.04439,-7.19576 -0.21683,-17.09148 -2.17833,-17.09148 -1.44694,0 -4.37129,6.10915 -5.00739,10.46075 -0.32759,2.2411 -0.73282,2.83263 -1.94044,2.83263 -1.94735,0 -2.61511,-2.79104 -3.04411,-12.72365 -0.14434,-3.34233 -0.48964,-6.76063 -0.7673,-7.59622 -0.29091,-0.87544 -0.44365,-2.56542 -0.36043,-3.988 0.25359,-4.33581 -1.20945,-12.71294 -3.48248,-19.94006 -1.10315,-3.5075 -4.95455,-11.45183 -6.72988,-13.88185 l -1.21296,-1.66028 -0.64986,2.35394 c -0.60509,2.19182 -2.09467,4.83063 -3.27516,5.80207 -0.27878,0.22939 -1.37114,0.64314 -2.42749,0.91945 -1.06203,0.27778 -2.67329,1.11389 -3.6043,1.87032 -3.06748,2.49229 -4.78348,1.75122 -5.63865,-2.43509 -0.56524,-2.76709 -1.87754,-6.77093 -2.30512,-7.03295 -0.1881,-0.11527 -0.44295,0.26745 -0.56635,0.85045 -2.10139,9.92776 -5.68803,19.0737 -8.96637,22.86432 -0.57659,0.66668 -0.80438,1.49066 -0.84001,3.03849 -0.0269,1.16805 -0.1038,2.55103 -0.17091,3.07327 -0.0672,0.52224 -0.22793,5.56423 -0.35738,11.20441 -0.12943,5.64018 -0.31312,10.6345 -0.40818,11.0985 -0.23363,1.14026 -1.46402,1.77525 -2.3622,1.21907 -0.37611,-0.23289 -1.62979,-1.80019 -2.78596,-3.48289 -2.66215,-3.87448 -3.01062,-4.10126 -4.31485,-2.80807 -1.16734,1.15746 -2.12504,1.25033 -3.83769,0.37219 -1.5938,-0.8172 -5.588772,-4.62789 -8.010806,-7.64129 -1.52422,-1.89635 -1.8659,-2.57381 -1.676177,-3.32333 0.448096,-1.77024 1.740153,-1.17353 4.245772,1.96084 1.264077,1.58128 3.305413,3.80266 4.536298,4.9364 l 2.237973,2.06134 1.51876,-1.36049 c 1.14772,-1.0281 1.72396,-1.2991 2.35867,-1.10924 1.05352,0.31517 2.7183,1.81443 4.13864,3.72719 0.70893,0.95469 1.1528,1.28851 1.2626,0.94951 0.0931,-0.28752 0.26567,-3.94106 0.38342,-8.11897 0.51726,-18.35356 0.67466,-19.56025 2.55137,-19.56025 0.97171,0 4.27236,-6.83698 5.711,-11.82977 2.49206,-8.64874 3.23539,-13.83502 2.11504,-14.75695 -0.86972,-0.71569 -0.6896,-1.863371 0.36735,-2.340877 0.75431,-0.340774 1.13584,-0.299575 1.91528,0.206799 0.53532,0.347794 0.97333,0.808705 0.97333,1.024246 0,0.215542 0.32689,1.108902 0.72643,1.985242 2.27625,4.99277 4.22927,10.34489 4.25419,11.65833 0.0287,1.50839 0.63632,1.61657 2.31362,0.41182 0.9061,-0.65082 2.34101,-1.29328 3.18868,-1.42767 0.90442,-0.1434 1.89944,-0.62761 2.4082,-1.17194 1.09336,-1.16977 2.04797,-4.37579 2.04797,-6.87806 0,-2.02207 -0.1038,-2.1886 -3.54159,-5.685357 -4.23011,-4.302608 -11.90757,-8.163281 -20.20775,-10.161632 -3.88153,-0.934528 -13.42484,-0.933179 -17.811997,0.0029 -7.050393,1.503719 -15.29022,5.039021 -21.1984,9.095182 -1.563844,1.073628 -3.208497,2.203197 -3.654781,2.510147 -2.131412,1.46597 -6.347297,5.02679 -7.669032,6.4774 -1.410358,1.54789 -1.463767,1.70159 -1.236344,3.55801 0.130733,1.06712 0.341875,2.39512 0.469218,2.95109 0.180594,0.78847 0.04757,1.10849 -0.604613,1.45457 -1.069236,0.56739 -2.093193,-0.25731 -2.495725,-2.01008 l -0.279024,-1.21509 -0.534647,1.70915 c -1.563327,4.99761 -2.193964,14.60225 -1.251919,19.06678 0.637355,3.02053 2.530287,6.29764 4.315291,7.47077 1.154736,0.7589 2.161252,1.0443 4.191976,1.18861 2.147576,0.15261 2.755341,0.33794 3.094834,0.94374 0.232348,0.41462 0.72411,0.97978 1.092798,1.25592 0.933862,0.69945 0.836138,1.6914 -0.267953,2.71985 -1.110978,1.03489 -2.633498,4.08651 -2.373726,4.75774 0.204661,0.52882 3.07365,1.33726 4.745725,1.33726 0.60195,0 1.291711,0.19558 1.532809,0.43464 0.329101,0.32632 0.723033,0.31772 1.580587,-0.0344 0.628228,-0.25802 1.499691,-0.35663 1.936579,-0.21915 1.381897,0.43489 0.913947,1.60648 -1.284977,3.21717 -2.277716,1.66839 -3.28343,2.8638 -3.28343,3.90273 0,0.78175 1.492481,0.92619 2.738424,0.26503 0.605849,-0.3215 0.931403,-0.26775 1.507034,0.24877 0.683866,0.61365 0.782302,0.61573 1.434747,0.0303 0.818375,-0.73435 1.649299,-0.80542 2.266108,-0.19384 1.145117,1.13541 1.076223,-4.09047 -0.07048,-5.34684 -1.1188,-1.22579 0.223022,-2.70853 1.728262,-1.90978 1.179932,0.62614 1.782228,1.91293 2.010268,4.29488 0.297192,3.10422 -0.551158,4.89542 -2.240896,4.73146 -1.038896,-0.10077 -1.412446,0.15426 -2.935518,2.00451 -0.959829,1.166 -2.187222,2.7897 -2.727538,3.6082 -1.022278,1.54859 -1.773907,3.79261 -1.178856,3.51952 0.187742,-0.0861 0.826979,-0.39749 1.420521,-0.69185 0.958723,-0.47544 1.224412,-0.45763 2.380461,0.15967 1.194293,0.63774 1.376699,0.64587 2.218375,0.0991 2.256961,-1.4663 4.866197,-4.82661 3.747795,-4.82661 -0.474998,0 -0.826202,-1.02791 -0.573927,-1.67977 0.529029,-1.36695 2.984568,-0.78514 5.339701,1.26519 0.699472,0.60895 1.627841,1.21924 2.06304,1.3562 0.938176,0.29524 1.037425,1.42149 0.186942,2.12136 -0.50095,0.41223 -0.885907,0.39383 -2.250307,-0.10752 l -1.645974,-0.60487 -2.250575,2.27272 c -3.344244,3.37717 -5.894367,4.38749 -7.577792,3.0022 -0.437777,-0.36025 -0.812056,-0.32501 -1.771095,0.16673 -2.506973,1.28543 -4.921081,-1.0392 -4.111343,-3.95894 0.439749,-1.58565 1.58352,-3.90693 2.291055,-4.64967 1.653901,-1.73623 1.644232,-1.85393 -0.132861,-1.61786 -1.362171,0.18095 -1.921509,0.0557 -3.002384,-0.67255 -1.9887,-1.33983 -2.27797,-2.83782 -1.011679,-5.23906 1.105906,-2.0971 1.135329,-2.04807 -1.490516,-2.48395 -4.171448,-0.69246 -5.463811,-3.45572 -3.45477,-7.3868 0.522696,-1.02276 1.126006,-1.96719 1.340688,-2.09875 0.846871,-0.51895 0.294818,-0.86053 -1.781943,-1.10254 -5.359351,-0.62456 -8.354695,-3.68058 -10.27795,-10.48615 -0.757348,-2.67991 -0.984264,-9.54903 -0.464231,-14.05298 l 0.285046,-2.46876 -0.813234,0.9474 c -1.414687,1.64807 -5.75452,9.144 -7.868008,13.5899 -7.479944,15.73472 -9.033903,33.21479 -4.206787,47.32103 1.931395,5.64408 3.172995,8.08778 6.402583,12.60147 2.678148,3.74299 7.141989,8.01847 7.746218,7.41935 0.72519,-0.71905 1.717039,-0.45418 5.676236,1.51582 11.796571,5.86967 26.000673,10.13312 35.953661,10.79173 6.12025,0.40498 14.2791,0.46391 17.46709,0.12618 13.16848,-1.39512 20.90907,-3.47523 23.07041,-6.19966 0.42652,-0.53763 0.96468,-1.86789 1.19594,-2.95611 1.1414,-5.37129 2.40332,-7.18999 3.93507,-5.67121 0.59898,0.59391 0.67324,0.90832 0.35415,1.4995 -0.22205,0.41142 -0.77697,2.18411 -1.23313,3.93933 -1.11528,4.29141 -1.57444,5.06668 -3.91045,6.60264 -3.33661,2.19387 -9.05818,3.78199 -17.87148,4.96056 -3.95327,0.52865 -18.14236,0.99496 -21.47539,0.70576 z m 51.10576,-96.21251 c -0.35122,-0.87032 -0.71039,-1.51118 -0.79817,-1.42415 -0.0877,0.087 0.12769,0.87035 0.47895,1.74066 0.35121,0.87033 0.71039,1.5112 0.79818,1.42415 0.0877,-0.087 -0.12769,-0.87033 -0.47896,-1.74066 z m -69.415731,33.31571 c -0.886145,-0.87864 -0.482954,-1.72858 1.189846,-2.50823 0.907227,-0.42284 1.882733,-1.04743 2.167785,-1.38799 0.445929,-0.53277 0.402816,-0.6994 -0.308817,-1.19363 -0.950291,-0.65998 -1.103924,-2.2438 -0.249197,-2.56901 0.694087,-0.26409 2.419789,0.3408 3.347695,1.17344 1.568419,1.40738 0.383487,4.15699 -2.497422,5.7952 -2.184564,1.24226 -2.947618,1.38655 -3.64989,0.69022 z m 52.598521,-14.4206 c -1.33612,-1.04211 -2.11369,-2.87196 -2.10617,-4.95653 0.007,-1.98103 0.20135,-2.29442 1.9094,-3.08112 1.9256,-0.88688 8.62593,-2.09602 9.35946,-1.689 0.66125,0.36692 0.79651,1.45952 0.25049,2.02329 -0.19221,0.19846 -0.78391,1.43018 -1.31489,2.73716 -2.08304,5.12728 -5.33492,7.12146 -8.09829,4.9662 z m 3.17061,-2.4301 c 0.87455,-0.60736 2.57845,-3.51137 2.25087,-3.83618 -0.0996,-0.0988 -1.25035,0.0291 -2.55731,0.28406 l -2.37629,0.46355 0.21372,1.30586 c 0.20667,1.26279 0.84509,2.37753 1.36163,2.37753 0.13798,0 0.63633,-0.26768 1.10738,-0.59482 z m -9.62839,-5.4171 c -1.31246,-1.43797 -0.22914,-7.2915 1.66381,-8.99009 1.82842,-1.64069 6.25077,0.70967 7.3072,3.8836 0.76167,2.28831 -1.31188,3.36373 -2.58036,1.33829 -0.96902,-1.54729 -2.11892,-2.75363 -2.62476,-2.75363 -0.69959,0 -1.39741,1.87687 -1.62396,4.36783 -0.25688,2.82455 -0.92065,3.49208 -2.14193,2.154 z m 11.70037,-5.07856 c -0.58053,-0.57562 -0.59962,-3.88245 -0.0287,-4.98148 0.86257,-1.66062 1.97745,-2.53876 3.22321,-2.53876 1.65051,0 2.98686,1.13009 3.78413,3.20004 0.84347,2.18986 0.68999,3.40784 -0.4496,3.56829 -0.711,0.10005 -1.0035,-0.20116 -1.65213,-1.70153 -0.43349,-1.00275 -0.99277,-1.95159 -1.24285,-2.10856 -0.71914,-0.45139 -1.41232,0.82877 -1.41232,2.60824 0,1.21609 -0.18583,1.7218 -0.74093,2.01637 -0.92339,0.48999 -0.92347,0.48999 -1.48079,-0.0626 z m 2.46339,-26.076008 c -0.66469,-0.728245 -0.50147,-1.908833 0.27813,-2.01183 0.2408,-0.03187 0.61021,-0.09761 0.82089,-0.146092 0.21068,-0.04852 0.59852,-0.107949 0.86187,-0.132066 0.9617,-0.088 0.43928,-1.44317 -1.14916,-2.980954 -2.35637,-2.281188 -8.67227,-5.95918 -13.23207,-7.705542 -2.1703,-0.831186 -4.18964,-1.511256 -4.48744,-1.511256 -0.29781,0 -0.86983,-0.349488 -1.27118,-0.776622 l -0.72972,-0.776637 -0.22359,1.108482 c -0.25173,1.248057 -1.24316,1.81554 -2.03438,1.164438 -0.67686,-0.556975 -0.675,-2.737018 0.004,-4.270467 0.8328,-1.881788 1.29724,-3.290247 1.93896,-5.880184 1.33609,-5.392141 0.67764,-6.349551 -4.32949,-6.295246 -1.8207,0.01981 -4.77556,0.329994 -6.56633,0.689416 -4.24175,0.851354 -10.34245,2.537454 -10.34245,2.858433 0,0.138383 0.58398,0.461041 1.29773,0.716963 3.26959,1.172275 6.594,4.882408 6.82931,7.621666 0.21447,2.496657 -2.28502,2.61368 -2.79713,0.130918 -0.13246,-0.642144 -0.65328,-1.682139 -1.15739,-2.311105 -0.98437,-1.228188 -4.40352,-3.21161 -6.27932,-3.642577 -2.779221,-0.638541 -3.703119,-2.377411 -2.021647,-3.804948 2.965877,-2.51796 19.640947,-5.904932 24.563607,-4.989267 1.4338,0.266717 2.75713,1.290303 3.60146,2.78574 0.93275,1.652021 0.50134,5.557296 -1.20672,10.92334 -0.77397,2.431514 -0.7793,2.394995 0.31923,2.186761 2.18269,-0.413713 11.96302,3.782252 17.04319,7.311884 3.81841,2.653099 5.39089,4.615978 5.39089,6.7295 0,2.835394 -3.43623,4.85321 -5.12109,3.007209 z"
       style="fill:#000000;stroke-width:0.381428" />
  </g>
</svg>
